<svg xmlns="http://www.w3.org/2000/svg" viewBox="0 0 33.27 32.87"><defs><style>.cls-1{fill:#b5a3ce;}</style></defs><g id="Capa_2" data-name="Capa 2"><g id="Capa_1-2" data-name="Capa 1"><path class="cls-1" d="M3.45,32.87A3.5,3.5,0,0,1,.92,32,3.45,3.45,0,0,1,0,29.46c0-4.1,4.6-11.41,11.44-18.18C21.64,1.17,29.82-1.64,32.35.86a3.43,3.43,0,0,1,.92,2.54c0,4.1-4.6,11.41-11.44,18.19C13.93,29.42,7.24,32.87,3.45,32.87ZM29.78,1.35c-3.29,0-10.18,3.82-17.35,10.93-6.49,6.43-11,13.49-11,17.18A2.12,2.12,0,0,0,1.91,31c2,2,10.26-1.83,18.93-10.42,6.49-6.43,11-13.5,11-17.19a2.07,2.07,0,0,0-.51-1.54A2.15,2.15,0,0,0,29.78,1.35Z"/></g></g></svg>